<svg xmlns="http://www.w3.org/2000/svg" width="100" height="100" fill="none" viewBox="0 0 100 100">
    <path fill="#EBE8DC" d="M0 0h100v100H0z" />
    <path fill="#383832"
        d="M50.42 26.623c10.897 0 17.611 5.992 18.904 16.87l.048.406H77l-.063-.515C75.167 28.741 65.252 20 50.42 20 34.02 19.999 23 32.039 23 49.959S34.02 80 50.42 80c14.838 0 24.75-8.774 26.517-23.47l.063-.512h-7.628l-.048.405c-1.3 10.933-8.012 16.954-18.904 16.954-12.4 0-19.8-8.754-19.8-23.418s7.4-23.337 19.8-23.337v.001Z" />
</svg>
